<svg id="Layer_1" data-name="Layer 1" xmlns="http://www.w3.org/2000/svg" viewBox="0 0 452.69 301.22">
    <defs>
        <style>.cls-1{fill:#fff;}</style>
    </defs>
    <title>My-Village-white-logo-02</title>
    <path class="cls-1"
          d="M299.92,49.41c-22.67-4.61-41.61-2.84-60,4.72a16.69,16.69,0,0,1-3.6,1.24,3,3,0,0,1-3.41-2A2.86,2.86,0,0,1,234,49.68,19.17,19.17,0,0,1,237.47,48c21.65-8.83,43.89-10.42,66.4-4.3A104,104,0,0,1,380.8,147.82c-1.76,43.75-30.44,81.92-71.89,95.06a20.51,20.51,0,0,1-4.12,1,2.87,2.87,0,0,1-3.18-2.26A2.82,2.82,0,0,1,303,238a18.11,18.11,0,0,1,3.18-1.2c29.08-9.69,50-28.52,61.21-57,20.2-51.25-5.64-105.17-52-125.19A84.26,84.26,0,0,0,299.92,49.41Z"/>
    <path class="cls-1"
          d="M402.46,170.51C390.57,218,362,250.41,315.24,266.29a14.51,14.51,0,0,1-2.46.68,3.16,3.16,0,0,1-3.88-2.42c-.49-1.84.43-3,2-3.76a22.68,22.68,0,0,1,2.81-1C350,247.64,376,224,390,188.33c13.54-34.39,11.09-68.39-5.85-101.3a32.15,32.15,0,0,1-2-3.77,3.24,3.24,0,0,1,1.33-4.1c1.4-.9,3.2-.41,4.43,1.19a15.74,15.74,0,0,1,1.34,2.18,127.7,127.7,0,0,1,15.34,71.84C404.24,159.78,403.2,165.05,402.46,170.51Z"/>
    <path class="cls-1"
          d="M300.79,30.58a115.74,115.74,0,0,1,92.14,117.13,96.76,96.76,0,0,1-1.11,12.72c-.51,3-1.84,4.37-3.85,4.13s-3.15-2.2-2.67-5.38a95.83,95.83,0,0,0,.14-29.28C379,88.74,356.73,59.55,318.45,43c-16.59-7.19-34.11-9.49-52.14-7.77a13.8,13.8,0,0,1-3.38.19,3,3,0,0,1-2.73-2.85,3,3,0,0,1,2.08-3.34,18.31,18.31,0,0,1,3.77-.61A112.19,112.19,0,0,1,300.79,30.58Z"/>
    <path class="cls-1"
          d="M367.22,161.43a97.81,97.81,0,0,1-10,27.28,29.73,29.73,0,0,1-1.5,2.57c-1.36,1.95-3,2.44-4.71,1.49s-2.09-2.7-1-4.78a114.53,114.53,0,0,0,5.53-11A85,85,0,0,0,314.37,67.46a62,62,0,0,0-9.85-4,9.89,9.89,0,0,1-2-.79,3.12,3.12,0,0,1-1.82-3.87c.49-1.72,1.95-2.6,4-2.12a59,59,0,0,1,11.91,4.55,91.49,91.49,0,0,1,51.93,88.59C368.34,154.2,368,158.61,367.22,161.43Z"/>
    <path class="cls-1"
          d="M347.63,108.8a3.24,3.24,0,0,1-2.25,2.42,3.18,3.18,0,0,1-3.48-1,25,25,0,0,1-1.78-2.9c-11.36-19-27.87-30.9-49.51-35-20.35-3.9-39.19.5-56.19,12.44a26.63,26.63,0,0,1-3.15,2.16,3.21,3.21,0,0,1-3.9-5A11,11,0,0,1,229.65,80c17.48-12.6,36.87-17.85,58.28-14.77,25.35,3.64,44.47,16.81,57.79,38.54C346.67,105.31,347.85,106.83,347.63,108.8Z"/>
    <path class="cls-1"
          d="M343.2,157.72c-5,21.29-16.92,36.83-36.08,46.81a17.18,17.18,0,0,1-3.51,1.5,3.07,3.07,0,0,1-3.87-1.82,3,3,0,0,1,1.32-4c1.08-.66,2.28-1.13,3.41-1.73,17.08-9,28.2-22.88,32.13-41.75,4.34-20.86-1.17-39.33-15.77-55a28.44,28.44,0,0,1-2.59-2.8,3.19,3.19,0,0,1,4.14-4.6,9,9,0,0,1,2.88,2.48C341.67,114.13,347.48,134.55,343.2,157.72Z"/>
    <path class="cls-1"
          d="M285.44,95.92c-1.83-.25-3.81-.45-5.77-.78-2.64-.44-3.62-1.45-3.46-3.42s1.31-3,3.84-3a45.35,45.35,0,0,1,14.6,2.7,55.57,55.57,0,0,1,34.91,70.43A53.75,53.75,0,0,1,316.47,183a19.06,19.06,0,0,1-1.87,1.73c-1.8,1.36-3.79,1.32-4.93-.16s-.93-3.17.44-4.58c.59-.61,1.21-1.2,1.8-1.81a48.89,48.89,0,0,0-12.66-77.69A51.85,51.85,0,0,0,285.44,95.92Z"/>
    <path class="cls-1"
          d="M349,156.87a72,72,0,0,0-.56-28.09,18.57,18.57,0,0,1-.6-2.91,3.24,3.24,0,0,1,6.23-1.58,14.39,14.39,0,0,1,.67,2.46c9,38.57-13.47,79.32-51,92.36-.67.23-1.34.49-2,.66-1.85.46-3.43.07-4.31-1.75-.77-1.61.2-3.58,2.13-4.47.9-.41,1.88-.64,2.81-1C326,203.72,343.56,183.32,349,156.87Z"/>
    <path class="cls-1"
          d="M386.92,181c-14,37.76-39.92,63-78.66,74.78a10,10,0,0,1-3.32.54,2.91,2.91,0,0,1-2.88-2.66,2.82,2.82,0,0,1,1.56-3.21,32.34,32.34,0,0,1,4-1.36q45.42-14.2,67.33-56.43a137.18,137.18,0,0,0,5.94-14.11,16.55,16.55,0,0,1,.69-2,3.07,3.07,0,0,1,3.92-1.67,3.14,3.14,0,0,1,2.15,3.71A12.39,12.39,0,0,1,386.92,181Z"/>
    <path class="cls-1"
          d="M286.05,101.49c15.79,4.21,26.68,13.62,32.11,29.06a14.47,14.47,0,0,1,.85,3.71,2.82,2.82,0,0,1-2.23,3.2,3.13,3.13,0,0,1-3.88-1.82c-.46-1-.69-2.16-1-3.23a36.83,36.83,0,0,0-62.49-12.66,23.38,23.38,0,0,1-2,2.22,3.1,3.1,0,0,1-4.28,0,2.93,2.93,0,0,1-.72-3.86,13.72,13.72,0,0,1,2.06-2.69C255.8,103.12,269.79,98.82,286.05,101.49Z"/>
    <path class="cls-1"
          d="M300.79,24.91a129.31,129.31,0,0,0-23.64-2.37,11.43,11.43,0,0,1-2.11-.06,3,3,0,0,1-2.82-3.16A3,3,0,0,1,275,16.07a25,25,0,0,1,4.24-.14c27.46.85,52.39,9.07,74.48,25.57a18.64,18.64,0,0,1,2.9,2.47,2.86,2.86,0,0,1,.11,3.91,3,3,0,0,1-4.15.92,26.93,26.93,0,0,1-2.77-2A122.63,122.63,0,0,0,300.79,24.91Z"/>
    <path class="cls-1"
          d="M291.18,78a61.34,61.34,0,0,1,15.7,5.36,16.1,16.1,0,0,1,3.28,1.94,3,3,0,0,1,.62,4.22,3,3,0,0,1-3.69,1.33A28.5,28.5,0,0,1,304,89.43c-23.88-10.87-46-7.93-66.57,8.23-.89.7-1.67,1.56-2.61,2.17a3.11,3.11,0,0,1-4.25-.54,3,3,0,0,1-.19-3.93,13.39,13.39,0,0,1,2.68-2.69Q258.68,71.6,291.18,78Z"/>
    <path class="cls-1"
          d="M374.33,243.46a5.23,5.23,0,0,1-2.08,3.46A141,141,0,0,1,316,278.69a8.75,8.75,0,0,1-1.64.41c-2.07.2-3.76-.72-4-2.34a3.25,3.25,0,0,1,2.36-4c2.83-.93,5.7-1.74,8.51-2.73a133.29,133.29,0,0,0,43.86-25.66,9.28,9.28,0,0,0,2.93-3.54c1.08-2.76,2.42-3.45,4.38-2.82S375,240.36,374.33,243.46Z"/>
    <path class="cls-1"
          d="M349,200.19a6.51,6.51,0,0,1-1.69,2.9A91.64,91.64,0,0,1,306.35,231c-.27.09-.55.16-.82.24-2.85.75-4.75.05-5.28-1.94s.5-3.32,3.14-4.26a98.26,98.26,0,0,0,12.54-5.25A84.66,84.66,0,0,0,341.2,200a24.88,24.88,0,0,1,2.93-3.05,2.75,2.75,0,0,1,3.54-.09A3,3,0,0,1,349,200.19Z"/>
    <path class="cls-1"
          d="M283.73,52.45c2.27.44,3.69,2,3.34,3.81a3.27,3.27,0,0,1-3.7,2.79A93.57,93.57,0,0,0,271.89,59a84.88,84.88,0,0,0-30.77,7.8A15.17,15.17,0,0,1,238.39,68a3.16,3.16,0,0,1-3.95-1.67,3,3,0,0,1,1.24-4.06,23.27,23.27,0,0,1,3-1.58,91.76,91.76,0,0,1,43.89-8.27Z"/>
    <path class="cls-1"
          d="M420.82,167.72A149.26,149.26,0,0,0,422.54,137a18.16,18.16,0,0,1,0-3.38,2.89,2.89,0,0,1,2.89-2.63,3.17,3.17,0,0,1,3.29,2.2,6.69,6.69,0,0,1,.35,2.09,159.81,159.81,0,0,1-2.65,38.5,11.43,11.43,0,0,1-.38,1.66c-.7,2-2,2.81-3.86,2.43a3.11,3.11,0,0,1-2.71-3.7C419.73,172.21,420.28,170.29,420.82,167.72Z"/>
    <path class="cls-1"
          d="M237,112.8a3.27,3.27,0,0,1-2.28-4.31,7.1,7.1,0,0,1,1.44-2.06A55.76,55.76,0,0,1,264.36,90a8.85,8.85,0,0,1,1.24-.27c1.91-.19,3.36.42,3.91,2.41.49,1.72-.35,3.14-2.31,3.92a12.74,12.74,0,0,1-1.64.43,49.86,49.86,0,0,0-24.24,14.09C239.41,112.59,238.3,113.1,237,112.8Z"/>
    <path class="cls-1"
          d="M284.93,113.72a31.75,31.75,0,0,1,19.19,14.74,13.15,13.15,0,0,1,.92,1.93,2.92,2.92,0,0,1-1.19,3.72,3.09,3.09,0,0,1-4.24-.5,10.46,10.46,0,0,1-1.4-2.13,24.66,24.66,0,0,0-14.9-11.3c-.41-.11-.83-.21-1.24-.33a3.24,3.24,0,0,1-2.56-3.84c.2-1.63,1.91-2.72,3.86-2.6A10.5,10.5,0,0,1,284.93,113.72Z"/>
    <path class="cls-1"
          d="M382.13,234.06c-3-.5-4.26-3.53-2.28-5.47,5.32-5.22,9-11.54,12.86-17.79a6.65,6.65,0,0,1,.43-.73c1.14-1.54,2.58-2.22,4.42-1.35a3.22,3.22,0,0,1,1.26,4.73,128.29,128.29,0,0,1-13.16,19.21A3.76,3.76,0,0,1,382.13,234.06Z"/>
    <path class="cls-1"
          d="M319.44,153.27a43.45,43.45,0,0,1-4.54,11.9,15.29,15.29,0,0,1-1.59,2.52c-1.33,1.63-3,2-4.48,1a3.12,3.12,0,0,1-1.07-4.46c3.61-5.5,5.23-11.59,6-18a3.17,3.17,0,0,1,3.38-3.12c1.86,0,3.17,1.48,3.09,3.82A62,62,0,0,1,319.44,153.27Z"/>
    <path class="cls-1"
          d="M440.8,158.79c-.46,2-2.17,3.34-3.91,2.94a3.25,3.25,0,0,1-2.66-3.76c.42-5.91.66-11.81.53-17.74a3.28,3.28,0,0,1,3.24-3.67,3.15,3.15,0,0,1,3.3,3.15A136.93,136.93,0,0,1,440.8,158.79Z"/>
    <path class="cls-1"
          d="M381.8,72.24a3.08,3.08,0,0,1-4.88,2.25,10.05,10.05,0,0,1-2.08-2.09c-2.91-3.5-5.78-7-8.67-10.54a14,14,0,0,1-1.3-1.68c-1.09-1.81-.88-3.46.51-4.59a3.35,3.35,0,0,1,4.6.51,39.07,39.07,0,0,1,2.73,3.27c2.53,3.07,5.07,6.13,7.59,9.21C381.2,69.68,382.18,70.76,381.8,72.24Z"/>
    <path class="cls-1"
          d="M273.2,113.12c1.46.55,2.56,1.36,2.59,3a3.28,3.28,0,0,1-2.53,3.46c-1.89.57-3.83,1-5.68,1.67a21.5,21.5,0,0,0-6.11,3.72,3.5,3.5,0,0,1-4.92-.57,3.44,3.44,0,0,1,.83-4.88,31.12,31.12,0,0,1,14.18-6.28C272.11,113.19,272.68,113.17,273.2,113.12Z"/>
    <path class="cls-1"
          d="M348.37,277.2a3.57,3.57,0,0,1-1.32,2.12c-3.68,3-7.71,5.3-12.51,5.94-2.43.32-4.19-.72-4.6-2.61s.71-3.63,3.24-4.07c3.64-.64,6.62-2.46,9.51-4.55a3.71,3.71,0,0,1,4.37-.16A2.93,2.93,0,0,1,348.37,277.2Z"/>
    <path class="cls-1"
          d="M220.79,198l-.08-31.73-15.56,26.14h-5.51L184.15,167V198H172.67V145.14h10.12L202.58,178l19.49-32.86h10.05l.15,52.88Z"/>
    <path class="cls-1"
          d="M284.33,157.37,266,200.51c-3.93,9.82-9.52,12.77-16.85,12.77-4.15,0-8.69-1.36-11.33-3.71l4.31-8.38a10.41,10.41,0,0,0,6.64,2.57c3.25,0,5.07-1.44,6.65-5.06l.15-.38-17.6-40.95H250.1L261.51,185,273,157.37Z"/>
    <path class="cls-1" d="M69,210,46.13,262.84H34L11.23,210H24.45l16.09,37.77L56.85,210Z"/>
    <path class="cls-1"
          d="M71.89,210c0-3.7,3-6.57,7.33-6.57s7.33,2.72,7.33,6.34c0,3.93-3,6.8-7.33,6.8S71.89,213.66,71.89,210Zm1.44,12.24H85.11v40.64H73.33Z"/>
    <path class="cls-1" d="M96.06,206.79h11.79v56H96.06Z"/>
    <path class="cls-1" d="M118.8,206.79h11.79v56H118.8Z"/>
    <path class="cls-1"
          d="M177.5,239.65v23.19h-11v-5.06c-2.19,3.7-6.42,5.66-12.39,5.66-9.52,0-15.18-5.29-15.18-12.31C138.9,244,144,239,156.35,239h9.37c0-5.06-3-8-9.37-8a19.49,19.49,0,0,0-11.71,3.78l-4.23-8.24c4.46-3.17,11-4.91,17.53-4.91C170.33,221.59,177.5,227.33,177.5,239.65ZM165.72,250v-4.16h-8.09c-5.51,0-7.25,2-7.25,4.76,0,3,2.49,4.91,6.65,4.91C161,255.51,164.36,253.7,165.72,250Z"/>
    <path class="cls-1"
          d="M230.54,222.2V256c0,15.11-8.16,22.06-22.82,22.06-7.7,0-15.18-1.89-19.94-5.59l4.68-8.46c3.48,2.79,9.14,4.61,14.35,4.61,8.31,0,11.94-3.78,11.94-11.11v-1.74c-3.1,3.4-7.55,5.06-12.84,5.06-11.26,0-20.32-7.78-20.32-19.64s9.06-19.64,20.32-19.64c5.66,0,10.35,1.89,13.44,5.82V222.2Zm-11.64,19c0-6-4.46-10-10.65-10s-10.73,4-10.73,10,4.54,10,10.73,10S218.9,247.2,218.9,241.23Z"/>
    <path class="cls-1"
          d="M281.08,245.84H250.33c1.13,5.06,5.44,8.16,11.63,8.16a13.75,13.75,0,0,0,10.2-3.93l6.27,6.8c-3.77,4.31-9.44,6.57-16.77,6.57-14.05,0-23.19-8.84-23.19-20.92s9.29-20.93,21.68-20.93c11.94,0,21.15,8,21.15,21.08C281.3,243.57,281.15,244.86,281.08,245.84ZM250.18,239h20a9.66,9.66,0,0,0-10-8.46C254.86,230.51,251,233.75,250.18,239Z"/>
</svg>