<svg width="178" height="125" viewBox="0 0 178 125" fill="none" xmlns="http://www.w3.org/2000/svg">
<g clip-path="url(#clip0)">
<path d="M118.938 19.2195C109.557 17.3243 101.721 18.0395 94.1014 21.1504C93.5982 21.3649 93.1309 21.5795 92.5918 21.651C91.9448 21.7583 91.4416 21.4722 91.1901 20.8286C90.9385 20.1849 91.1182 19.6486 91.6573 19.291C92.0886 19.0049 92.5918 18.7904 93.0591 18.5758C102.009 14.9285 111.246 14.2849 120.555 16.7879C141.294 22.4019 153.155 41.2463 152.4 59.6973C151.681 77.7192 139.784 93.4526 122.64 98.852C122.065 99.0308 121.526 99.2096 120.95 99.2811C120.303 99.3526 119.836 98.995 119.621 98.3514C119.405 97.7078 119.657 97.1714 120.232 96.8496C120.627 96.635 121.094 96.492 121.561 96.349C133.602 92.3441 142.264 84.5847 146.901 72.8561C155.276 51.7233 144.565 29.5177 125.371 21.2934C122.855 20.328 120.303 19.4698 118.938 19.2195Z" fill="#69C2C4"/>
<path d="M161.421 69.1373C156.497 88.7326 144.672 102.07 125.299 108.578C124.976 108.685 124.616 108.793 124.293 108.864C123.466 108.972 122.891 108.614 122.675 107.863C122.46 107.112 122.855 106.612 123.502 106.325C123.862 106.147 124.293 106.075 124.652 105.932C139.712 100.926 150.459 91.1641 156.282 76.4677C161.889 62.3076 160.882 48.2906 153.874 34.7384C153.622 34.202 153.263 33.7371 153.047 33.2008C152.795 32.5571 152.975 31.9135 153.586 31.5202C154.161 31.1626 154.916 31.3414 155.419 32.0208C155.635 32.3068 155.814 32.5929 155.958 32.9147C160.954 42.176 163.147 52.0094 162.32 62.5222C162.14 64.7034 161.709 66.8846 161.421 69.1373Z" fill="#69C2C4"/>
<path d="M119.297 11.4958C142.157 16.2516 158.223 36.5978 157.468 59.7331C157.396 61.4852 157.289 63.2373 157.001 64.9895C156.785 66.241 156.246 66.7774 155.42 66.7058C154.557 66.5986 154.126 65.8119 154.305 64.4889C154.916 60.484 154.988 56.4434 154.377 52.4385C151.717 35.4893 142.48 23.4389 126.63 16.6092C119.765 13.6413 112.504 12.7116 105.028 13.391C104.561 13.4267 104.094 13.534 103.626 13.4625C103.015 13.3552 102.548 12.9619 102.512 12.2825C102.476 11.6389 102.728 11.1025 103.375 10.8879C103.878 10.7449 104.417 10.6734 104.92 10.6376C109.88 10.1728 114.373 10.4588 119.297 11.4958Z" fill="#E98A2B"/>
<path d="M146.793 65.3828C145.822 69.7095 144.528 73.2853 142.623 76.6108C142.408 76.9683 142.228 77.3259 142.012 77.6835C141.437 78.4702 140.79 78.6847 140.072 78.2914C139.389 77.898 139.209 77.1829 139.676 76.3247C140.503 74.8229 141.294 73.3568 141.976 71.7835C149.165 54.7985 141.941 34.9172 124.904 26.6571C123.574 26.0135 122.244 25.4056 120.842 25.0123C120.555 24.9407 120.267 24.8335 120.016 24.6904C119.369 24.3329 119.045 23.8323 119.261 23.0813C119.477 22.3662 120.052 22.0086 120.95 22.2232C122.675 22.6165 124.293 23.3316 125.874 24.0826C139.856 30.6978 148.41 45.1797 147.368 60.5913C147.26 62.4149 147.152 64.2386 146.793 65.3828Z" fill="#E98A2B"/>
<path d="M138.707 43.7136C138.563 44.2142 138.275 44.5718 137.772 44.7148C137.233 44.8578 136.694 44.7506 136.334 44.2857C136.047 43.9281 135.831 43.499 135.58 43.1057C130.871 35.3105 124.042 30.3759 115.092 28.6596C106.682 27.0505 98.8823 28.8741 91.8375 33.7729C91.4062 34.059 91.0109 34.4166 90.5436 34.6669C89.8967 34.9887 89.2856 34.8457 88.8184 34.2378C88.423 33.7014 88.5308 33.0935 88.9262 32.6287C89.1778 32.3069 89.5372 32.0923 89.8607 31.842C97.0852 26.6571 105.136 24.4759 114.014 25.7632C124.509 27.265 132.417 32.7002 137.952 41.6396C138.311 42.2833 138.779 42.8912 138.707 43.7136Z" fill="#69C2C4"/>
<path d="M136.873 63.8453C134.825 72.6059 129.865 79.0066 121.921 83.1187C121.454 83.369 120.987 83.6193 120.484 83.7266C119.801 83.9054 119.19 83.6551 118.866 82.9757C118.579 82.2963 118.758 81.6884 119.405 81.3308C119.872 81.0448 120.34 80.866 120.807 80.6157C127.888 76.8969 132.488 71.1756 134.106 63.4162C135.903 54.8343 133.638 47.2179 127.564 40.7457C127.205 40.3524 126.809 40.0306 126.486 39.6015C126.126 39.0651 126.162 38.493 126.594 37.9924C127.025 37.456 127.6 37.456 128.211 37.7063C128.714 37.9209 129.038 38.35 129.397 38.7433C136.226 45.8949 138.634 54.2979 136.873 63.8453Z" fill="#E98A2B"/>
<path d="M112.936 38.3857C112.181 38.2784 111.354 38.2069 110.527 38.0639C109.449 37.8851 109.018 37.456 109.09 36.6693C109.162 35.8469 109.629 35.4178 110.671 35.4178C112.756 35.4178 114.769 35.8826 116.71 36.5263C128.822 40.6742 135.184 53.4755 131.158 65.5258C130.044 68.8513 128.211 71.7477 125.731 74.2508C125.479 74.5011 125.228 74.7514 124.94 74.9659C124.186 75.538 123.359 75.5023 122.892 74.8944C122.388 74.2508 122.496 73.5714 123.071 72.9992C123.323 72.7489 123.575 72.4986 123.826 72.2483C133.351 62.4864 130.727 46.5027 118.579 40.2451C116.853 39.3511 114.984 38.8148 112.936 38.3857Z" fill="#69C2C4"/>
<path d="M139.281 63.4877C139.928 60.1622 139.928 56.0143 139.066 51.9021C138.994 51.5088 138.85 51.1155 138.814 50.6864C138.778 49.9712 139.102 49.3991 139.82 49.2203C140.539 49.0415 141.114 49.3276 141.402 50.007C141.546 50.3288 141.582 50.6864 141.689 51.0082C145.427 66.8846 136.118 83.6908 120.555 89.0545C120.268 89.1617 120.016 89.269 119.729 89.3405C118.974 89.5193 118.291 89.3763 117.932 88.6254C117.608 87.9817 118.003 87.1593 118.794 86.8017C119.154 86.6229 119.585 86.5514 119.944 86.4084C129.757 82.7968 137.017 74.3938 139.281 63.4877Z" fill="#69C2C4"/>
<path d="M154.988 73.4283C149.165 88.9829 138.454 99.3885 122.424 104.252C121.992 104.395 121.489 104.502 121.058 104.466C120.411 104.43 119.98 104.037 119.872 103.358C119.764 102.785 119.98 102.285 120.519 102.035C121.058 101.784 121.633 101.641 122.172 101.462C134.716 97.5648 144.025 89.8054 150.063 78.2198C151.034 76.3604 151.753 74.358 152.543 72.3913C152.651 72.1053 152.687 71.8192 152.831 71.5689C153.19 70.9252 153.73 70.6392 154.448 70.8895C155.167 71.1398 155.419 71.7119 155.347 72.4271C155.239 72.7847 155.095 73.1065 154.988 73.4283Z" fill="#E98A2B"/>
<path d="M113.187 40.6742C119.728 42.4263 124.221 46.2882 126.486 52.653C126.665 53.1537 126.809 53.6543 126.845 54.1906C126.881 54.8343 126.593 55.3706 125.91 55.5137C125.228 55.6925 124.617 55.4421 124.293 54.7627C124.113 54.3337 124.006 53.8688 123.862 53.4397C120.088 42.3906 105.819 39.4942 97.9831 48.2191C97.6956 48.5409 97.4799 48.8627 97.1565 49.1488C96.5814 49.6494 95.9344 49.5779 95.3953 49.1488C94.8921 48.7197 94.7842 48.1476 95.1077 47.5397C95.3234 47.1464 95.6469 46.7888 95.9703 46.4312C100.679 41.3536 106.466 39.6015 113.187 40.6742Z" fill="#69C2C4"/>
<path d="M119.297 9.13581C116.314 8.59944 112.935 8.13459 109.521 8.17035C109.233 8.17035 108.945 8.20611 108.658 8.13459C107.939 8.02732 107.472 7.59822 107.508 6.84731C107.508 6.0964 107.903 5.59579 108.622 5.52427C109.197 5.45276 109.808 5.45276 110.383 5.45276C121.741 5.81034 132.092 9.20732 141.222 16.0013C141.653 16.3231 142.084 16.6449 142.408 17.0025C142.839 17.5031 142.875 18.111 142.444 18.6116C142.013 19.1837 141.402 19.3625 140.719 19.0049C140.323 18.7904 139.964 18.4686 139.568 18.1825C133.602 13.7128 126.953 10.7449 119.297 9.13581Z" fill="#69C2C4"/>
<path d="M115.307 31.0196C117.608 31.4129 119.728 32.2354 121.813 33.2366C122.28 33.4511 122.783 33.7014 123.179 34.0233C123.754 34.4881 123.79 35.1317 123.43 35.7754C123.107 36.3475 122.532 36.5263 121.921 36.3118C121.489 36.1687 121.094 35.9184 120.663 35.7039C110.778 31.2341 101.613 32.4499 93.0947 39.1009C92.7353 39.3869 92.4118 39.7445 92.0165 39.9948C91.4054 40.3882 90.7585 40.2809 90.2553 39.7803C89.788 39.2797 89.824 38.6718 90.1834 38.1712C90.4709 37.7421 90.9022 37.3845 91.2976 37.0627C98.3423 31.2699 106.358 29.2675 115.307 31.0196Z" fill="#E98A2B"/>
<path d="M149.741 99.174C149.705 99.7818 149.345 100.175 148.878 100.604C142.121 106.755 134.393 111.153 125.587 113.692C125.372 113.763 125.12 113.835 124.904 113.87C124.042 113.942 123.359 113.584 123.251 112.905C123.107 112.118 123.431 111.51 124.221 111.26C125.408 110.867 126.594 110.545 127.744 110.152C134.465 107.792 140.539 104.252 145.895 99.5673C146.362 99.1382 146.865 98.7806 147.117 98.1012C147.548 96.957 148.123 96.6709 148.914 96.957C149.777 97.2073 150.028 97.8867 149.741 99.174Z" fill="#E98A2B"/>
<path d="M139.245 81.3665C139.137 81.8314 138.85 82.189 138.526 82.5466C133.926 87.946 128.283 91.7721 121.597 94.0606C121.489 94.0963 121.382 94.1321 121.274 94.1678C120.088 94.4897 119.297 94.2036 119.081 93.3812C118.866 92.6303 119.297 92.0224 120.375 91.629C122.136 91.0212 123.898 90.3418 125.551 89.4836C129.576 87.4096 133.063 84.692 136.01 81.3308C136.406 80.9017 136.765 80.4369 137.232 80.0793C137.664 79.7217 138.203 79.6859 138.706 80.0435C139.209 80.3296 139.389 80.7944 139.245 81.3665Z" fill="#E98A2B"/>
<path d="M112.253 20.5068C113.187 20.6856 113.798 21.3292 113.618 22.0801C113.475 22.8668 112.864 23.2959 112.073 23.2244C110.491 23.1171 108.91 23.1171 107.328 23.1886C102.872 23.4747 98.6304 24.5117 94.6048 26.4068C94.2454 26.5856 93.85 26.8002 93.4906 26.9074C92.8077 27.0862 92.1966 26.9074 91.8372 26.2281C91.5137 25.5487 91.7294 24.9765 92.3404 24.5474C92.7358 24.2971 93.1671 24.0826 93.5984 23.9038C99.3851 21.2577 105.423 20.1492 111.785 20.5068C111.929 20.4711 112.109 20.4711 112.253 20.5068Z" fill="#E98A2B"/>
<path d="M169.006 67.9931C169.653 63.9525 169.94 59.6615 169.725 55.3349C169.689 54.87 169.689 54.4052 169.761 53.9403C169.869 53.2967 170.3 52.9033 170.947 52.8676C171.594 52.8318 172.061 53.1894 172.313 53.7615C172.421 54.0118 172.456 54.3336 172.456 54.6197C172.744 59.9476 172.385 65.2398 171.342 70.4962C171.306 70.7107 171.27 70.961 171.198 71.1756C170.911 71.998 170.372 72.3198 169.617 72.1768C168.79 71.998 168.395 71.4616 168.503 70.6392C168.575 69.8168 168.79 69.0301 169.006 67.9931Z" fill="#E98A2B"/>
<path d="M92.879 45.3585C92.1242 45.1797 91.621 44.3215 91.9445 43.5706C92.0883 43.2487 92.3039 42.9627 92.5555 42.7124C95.7544 39.3154 99.6362 37.0269 104.237 35.9541C104.417 35.9184 104.56 35.8469 104.74 35.8469C105.531 35.7753 106.142 36.0257 106.357 36.8481C106.573 37.5632 106.214 38.1354 105.387 38.4572C105.171 38.5287 104.92 38.5645 104.704 38.636C100.786 39.6014 97.4437 41.5681 94.6761 44.4287C93.8854 45.2512 93.4181 45.4657 92.879 45.3585Z" fill="#E98A2B"/>
<path d="M112.72 45.716C116.17 46.753 118.866 48.7197 120.663 51.7949C120.807 52.0452 120.95 52.3312 121.058 52.5815C121.31 53.2252 121.13 53.7258 120.555 54.1191C119.908 54.5482 119.297 54.4052 118.794 53.9046C118.542 53.6543 118.399 53.3325 118.219 53.0464C116.781 50.6864 114.732 49.113 112.037 48.3979C111.857 48.3621 111.677 48.3264 111.534 48.2548C110.743 48.0403 110.383 47.4682 110.455 46.6815C110.527 46.0021 111.246 45.573 112.037 45.6088C112.324 45.6088 112.54 45.6803 112.72 45.716Z" fill="#E98A2B"/>
<path d="M152.975 95.3121C151.753 95.0975 151.214 93.846 152.04 93.0594C154.233 90.9139 155.778 88.3036 157.36 85.729C157.432 85.6217 157.468 85.5144 157.539 85.4429C158.007 84.7993 158.618 84.5132 159.373 84.8708C160.091 85.1926 160.343 86.0151 159.912 86.8375C158.33 89.6266 156.533 92.2727 154.448 94.74C154.053 95.2048 153.514 95.3836 152.975 95.3121Z" fill="#E98A2B"/>
<path d="M127.025 62.0216C126.665 63.7737 125.982 65.3828 125.156 66.9204C124.976 67.278 124.76 67.6355 124.509 67.9574C123.97 68.6368 123.251 68.7798 122.64 68.3865C122.029 67.9931 121.741 67.2422 122.208 66.5628C123.718 64.3101 124.365 61.7713 124.688 59.1609C124.796 58.3743 125.263 57.8737 126.09 57.8737C126.845 57.8737 127.42 58.4815 127.384 59.447C127.312 60.3052 127.133 61.1634 127.025 62.0216Z" fill="#E98A2B"/>
<path d="M177.272 64.31C177.092 65.1325 176.374 65.6688 175.655 65.5258C174.864 65.347 174.505 64.7749 174.541 63.9882C174.72 61.5567 174.828 59.1251 174.756 56.6936C174.72 55.7639 175.331 55.1918 176.086 55.1918C176.805 55.156 177.416 55.6567 177.452 56.4791C177.668 59.0536 177.488 61.664 177.272 64.31Z" fill="#69C2C4"/>
<path d="M152.832 28.6238C152.652 29.6608 151.682 30.0899 150.819 29.5535C150.496 29.3389 150.208 29.0171 149.957 28.6953C148.77 27.265 147.548 25.7989 146.362 24.3686C146.183 24.1541 145.967 23.9395 145.823 23.6892C145.392 22.9383 145.464 22.2589 146.039 21.7941C146.578 21.365 147.333 21.4007 147.944 22.0086C148.375 22.4019 148.699 22.9025 149.058 23.3674C150.1 24.6189 151.143 25.9062 152.185 27.1577C152.616 27.5868 153.012 28.0159 152.832 28.6238Z" fill="#E98A2B"/>
<path d="M107.867 45.5015C108.478 45.716 108.945 46.0736 108.945 46.753C108.945 47.4681 108.622 47.9687 107.903 48.1833C107.112 48.4336 106.322 48.5766 105.567 48.8627C104.632 49.2203 103.806 49.7566 103.051 50.4003C102.404 50.9366 101.469 50.7579 101.002 50.15C100.535 49.5421 100.643 48.6839 101.362 48.1475C103.123 46.8603 105.028 45.859 107.22 45.573C107.436 45.5015 107.651 45.5015 107.867 45.5015Z" fill="#E98A2B"/>
<path d="M138.993 113.084C138.921 113.441 138.742 113.727 138.454 113.942C136.945 115.193 135.255 116.123 133.279 116.373C132.272 116.516 131.553 116.087 131.374 115.301C131.194 114.478 131.661 113.799 132.703 113.62C134.213 113.37 135.435 112.619 136.621 111.761C137.232 111.332 137.843 111.367 138.418 111.689C138.957 112.011 139.101 112.512 138.993 113.084Z" fill="#E98A2B"/>
<path d="M86.2264 79.5892L86.1951 66.422L79.7358 77.2692H77.4469L71.019 66.7041V79.5892H66.2529V57.6439H70.4546L78.6697 71.2813L86.7595 57.6439H90.9298L90.9925 79.5892H86.2264Z" fill="white"/>
<path d="M112.599 62.7226L104.979 80.6237C104.206 82.5675 103.244 83.9364 102.095 84.7306C100.966 85.5249 99.5968 85.922 97.9872 85.922C97.1092 85.922 96.2417 85.7861 95.3847 85.5144C94.5276 85.2427 93.8274 84.8665 93.2839 84.3858L95.0711 80.9059C95.4474 81.2403 95.8759 81.5016 96.3567 81.6897C96.8584 81.8778 97.3496 81.9718 97.8304 81.9718C98.4993 81.9718 99.0428 81.8046 99.4609 81.4702C99.879 81.1567 100.255 80.6237 100.59 79.8713L100.652 79.7146L93.3466 62.7226H98.3948L103.13 74.1655L107.896 62.7226H112.599Z" fill="white"/>
<path d="M23.3776 84.3483L13.8769 106.294H8.86L-0.609375 84.3483H4.87785L11.5566 100.024L18.3294 84.3483H23.3776Z" fill="white"/>
<path d="M25.1715 89.4271H30.063V106.294H25.1715V89.4271ZM27.6172 87.0758C26.7184 87.0758 25.9868 86.8146 25.4224 86.2921C24.858 85.7696 24.5758 85.1217 24.5758 84.3483C24.5758 83.575 24.858 82.9271 25.4224 82.4046C25.9868 81.8821 26.7184 81.6208 27.6172 81.6208C28.5161 81.6208 29.2477 81.8717 29.8121 82.3733C30.3765 82.8749 30.6587 83.5019 30.6587 84.2543C30.6587 85.0694 30.3765 85.7487 29.8121 86.2921C29.2477 86.8146 28.5161 87.0758 27.6172 87.0758Z" fill="white"/>
<path d="M34.6027 83.0316H39.4941V106.294H34.6027V83.0316Z" fill="white"/>
<path d="M44.0338 83.0316H48.9253V106.294H44.0338V83.0316Z" fill="white"/>
<path d="M60.2692 89.1763C62.8821 89.1763 64.8889 89.8033 66.2894 91.0573C67.69 92.2905 68.3903 94.161 68.3903 96.6691V106.294H63.8123V104.193C62.8926 105.761 61.1785 106.544 58.67 106.544C57.374 106.544 56.2452 106.325 55.2836 105.886C54.343 105.447 53.6218 104.841 53.1201 104.068C52.6184 103.294 52.3676 102.417 52.3676 101.434C52.3676 99.8668 52.9529 98.6337 54.1235 97.735C55.315 96.8363 57.1441 96.3869 59.6107 96.3869H63.4988C63.4988 95.321 63.1748 94.5059 62.5268 93.9416C61.8787 93.3564 60.9067 93.0638 59.6107 93.0638C58.7118 93.0638 57.8234 93.2101 56.9455 93.5027C56.0884 93.7744 55.3568 94.1506 54.7506 94.6313L52.9947 91.2141C53.9144 90.5662 55.0119 90.0646 56.287 89.7093C57.583 89.354 58.9104 89.1763 60.2692 89.1763ZM59.8929 103.253C60.729 103.253 61.4711 103.065 62.1191 102.688C62.7672 102.291 63.227 101.716 63.4988 100.964V99.2398H60.1437C58.137 99.2398 57.1336 99.8982 57.1336 101.215C57.1336 101.842 57.374 102.344 57.8548 102.72C58.3565 103.075 59.0358 103.253 59.8929 103.253Z" fill="white"/>
<path d="M90.4033 89.4271V103.472C90.4033 106.565 89.5985 108.864 87.9889 110.369C86.3794 111.874 84.0277 112.626 80.9339 112.626C79.3035 112.626 77.7566 112.428 76.2933 112.031C74.8301 111.634 73.6176 111.059 72.6561 110.307L74.6001 106.795C75.3108 107.38 76.2097 107.84 77.2967 108.175C78.3837 108.53 79.4707 108.708 80.5577 108.708C82.2509 108.708 83.4946 108.321 84.289 107.548C85.1042 106.795 85.5118 105.646 85.5118 104.099V103.378C84.2367 104.778 82.4599 105.479 80.1814 105.479C78.6345 105.479 77.2131 105.144 75.9171 104.475C74.6419 103.786 73.6281 102.824 72.8756 101.591C72.123 100.358 71.7468 98.9368 71.7468 97.3274C71.7468 95.7181 72.123 94.2969 72.8756 93.0638C73.6281 91.8306 74.6419 90.8797 75.9171 90.2109C77.2131 89.5212 78.6345 89.1763 80.1814 89.1763C82.6271 89.1763 84.4876 89.981 85.7627 91.5903V89.4271H90.4033ZM81.1534 101.466C82.4495 101.466 83.5051 101.089 84.3203 100.337C85.1565 99.5638 85.5746 98.5605 85.5746 97.3274C85.5746 96.0943 85.1565 95.1015 84.3203 94.3491C83.5051 93.5758 82.4495 93.1892 81.1534 93.1892C79.8574 93.1892 78.7913 93.5758 77.9552 94.3491C77.119 95.1015 76.7009 96.0943 76.7009 97.3274C76.7009 98.5605 77.119 99.5638 77.9552 100.337C78.7913 101.089 79.8574 101.466 81.1534 101.466Z" fill="white"/>
<path d="M111.48 97.9231C111.48 97.9858 111.449 98.4247 111.386 99.2398H98.6246C98.8545 100.285 99.398 101.11 100.255 101.716C101.112 102.323 102.178 102.626 103.453 102.626C104.331 102.626 105.105 102.5 105.774 102.249C106.463 101.978 107.101 101.56 107.686 100.995L110.289 103.817C108.7 105.635 106.38 106.544 103.328 106.544C101.426 106.544 99.7429 106.179 98.2797 105.447C96.8164 104.695 95.6876 103.66 94.8933 102.344C94.0989 101.027 93.7018 99.5324 93.7018 97.8604C93.7018 96.2093 94.0885 94.7253 94.8619 93.4086C95.6563 92.071 96.7328 91.0364 98.0916 90.3049C99.4712 89.5525 101.008 89.1763 102.701 89.1763C104.352 89.1763 105.847 89.5316 107.185 90.2422C108.522 90.9528 109.568 91.977 110.32 93.3146C111.094 94.6313 111.48 96.1675 111.48 97.9231ZM102.732 92.8757C101.624 92.8757 100.694 93.1892 99.9415 93.8162C99.189 94.4432 98.7291 95.3001 98.5619 96.3869H106.871C106.704 95.321 106.244 94.4745 105.491 93.8475C104.739 93.1996 103.819 92.8757 102.732 92.8757Z" fill="white"/>
</g>
<defs>
<clipPath id="clip0">
<rect width="178" height="125" fill="white"/>
</clipPath>
</defs>
</svg>
