<svg id="Layer_1" data-name="Layer 1" xmlns="http://www.w3.org/2000/svg" viewBox="0 0 452.69 301.22">
    <defs>
        <style>.cls-1{fill:#69c2c4;}.cls-2{fill:#e98a2a;}.cls-3{fill:#5e6162;}</style>
    </defs>
    <title>My-Village-Full-logo</title>
    <path class="cls-1"
          d="M301.18,47.67c-23.06-4.68-42.32-2.89-61,4.8a16.9,16.9,0,0,1-3.66,1.27,3,3,0,0,1-3.47-2A2.9,2.9,0,0,1,234.17,48a19.85,19.85,0,0,1,3.49-1.72c22-9,44.64-10.6,67.54-4.37a105.73,105.73,0,0,1,78.25,105.91c-1.8,44.5-31,83.32-73.12,96.69a21.22,21.22,0,0,1-4.19,1,2.92,2.92,0,0,1-3.24-2.3,2.88,2.88,0,0,1,1.45-3.68,18.76,18.76,0,0,1,3.24-1.21c29.58-9.86,50.84-29,62.26-58,20.55-52.13-5.74-107-52.92-127.34A86.39,86.39,0,0,0,301.18,47.67Z"/>
    <path class="cls-1"
          d="M405.48,170.86c-12.09,48.33-41.16,81.26-88.72,97.41a14.76,14.76,0,0,1-2.5.7,3.22,3.22,0,0,1-3.94-2.46c-.5-1.88.43-3.07,2-3.83a22.94,22.94,0,0,1,2.86-1c37-12.4,63.39-36.48,77.67-72.72,13.77-35,11.28-69.57-6-103a33.25,33.25,0,0,1-2-3.83,3.28,3.28,0,0,1,1.36-4.17c1.42-.92,3.25-.42,4.5,1.21a14.73,14.73,0,0,1,1.36,2.21c12.28,22.85,17.64,47.15,15.6,73.08C407.29,159.94,406.23,165.3,405.48,170.86Z"/>
    <path class="cls-2"
          d="M302.06,28.52a117.74,117.74,0,0,1,93.73,119.14,100.14,100.14,0,0,1-1.13,12.94c-.52,3.09-1.88,4.45-3.92,4.2s-3.2-2.24-2.72-5.47a97.19,97.19,0,0,0,.14-29.78C381.59,87.68,359,58,320,41.11c-16.88-7.32-34.7-9.66-53-7.91a13.82,13.82,0,0,1-3.44.19,3.07,3.07,0,0,1-2.78-2.89,3,3,0,0,1,2.12-3.4,18.91,18.91,0,0,1,3.83-.63A114.14,114.14,0,0,1,302.06,28.52Z"/>
    <path class="cls-2"
          d="M369.63,161.62a99.38,99.38,0,0,1-10.2,27.74A28.44,28.44,0,0,1,357.9,192c-1.37,2-3,2.48-4.78,1.51s-2.13-2.75-1-4.86a118.47,118.47,0,0,0,5.62-11.21A86.47,86.47,0,0,0,315.88,66a61.33,61.33,0,0,0-10-4.07,10.22,10.22,0,0,1-2-.81A3.16,3.16,0,0,1,302,57.23c.49-1.75,2-2.64,4.11-2.16a60.48,60.48,0,0,1,12.12,4.63,93,93,0,0,1,52.82,90.11C370.77,154.26,370.44,158.75,369.63,161.62Z"/>
    <path class="cls-1"
          d="M349.71,108.08a3.3,3.3,0,0,1-2.29,2.46,3.22,3.22,0,0,1-3.54-1,25.73,25.73,0,0,1-1.81-2.94c-11.55-19.27-28.34-31.43-50.36-35.65-20.7-4-39.86.5-57.15,12.65a27.64,27.64,0,0,1-3.21,2.2,3.28,3.28,0,0,1-4-5.06,11.68,11.68,0,0,1,2.32-1.92C247.48,66,267.21,60.63,289,63.76c25.78,3.71,45.22,17.11,58.78,39.21C348.73,104.54,349.93,106.08,349.71,108.08Z"/>
    <path class="cls-2"
          d="M345.2,157.84c-5.05,21.65-17.2,37.46-36.69,47.61a17.31,17.31,0,0,1-3.58,1.53,3.12,3.12,0,0,1-3.94-1.85,3,3,0,0,1,1.35-4.1c1.1-.67,2.32-1.15,3.47-1.76,17.37-9.17,28.68-23.28,32.68-42.46,4.42-21.23-1.19-40-16-55.93A27.17,27.17,0,0,1,319.82,98a3.07,3.07,0,0,1,.27-4c1.11-1.31,2.5-1.3,3.94-.69A9.48,9.48,0,0,1,327,95.87C343.65,113.51,349.55,134.28,345.2,157.84Z"/>
    <path class="cls-1"
          d="M286.45,95c-1.86-.25-3.88-.46-5.87-.79-2.68-.45-3.67-1.48-3.51-3.48s1.32-3.06,3.9-3a46.63,46.63,0,0,1,14.85,2.75,56.52,56.52,0,0,1,35.51,71.64A54.62,54.62,0,0,1,318,183.59a17.63,17.63,0,0,1-1.91,1.76c-1.83,1.39-3.85,1.35-5-.16s-.94-3.22.44-4.65c.61-.62,1.24-1.22,1.84-1.84a49.74,49.74,0,0,0-12.88-79A52.82,52.82,0,0,0,286.45,95Z"/>
    <path class="cls-1"
          d="M351.12,157a73,73,0,0,0-.57-28.56,20.75,20.75,0,0,1-.61-3,3.3,3.3,0,0,1,6.34-1.61,14.86,14.86,0,0,1,.68,2.5c9.19,39.23-13.7,80.68-51.88,93.95-.68.23-1.36.49-2.05.66-1.89.47-3.5.08-4.39-1.78-.78-1.63.2-3.64,2.16-4.54.92-.42,1.91-.65,2.86-1C327.72,204.63,345.57,183.88,351.12,157Z"/>
    <path class="cls-2"
          d="M389.68,181.48c-14.26,38.41-40.61,64.1-80,76.06a10.16,10.16,0,0,1-3.39.55,3,3,0,0,1-2.92-2.7,2.85,2.85,0,0,1,1.59-3.27,33.31,33.31,0,0,1,4.09-1.38q46.2-14.44,68.48-57.4A138.93,138.93,0,0,0,383.57,179a16.89,16.89,0,0,1,.7-2,3.13,3.13,0,0,1,4-1.71,3.2,3.2,0,0,1,2.19,3.77A14.19,14.19,0,0,1,389.68,181.48Z"/>
    <path class="cls-1"
          d="M287.07,100.65c16.07,4.28,27.14,13.85,32.67,29.55a15,15,0,0,1,.86,3.78,2.89,2.89,0,0,1-2.27,3.26,3.2,3.2,0,0,1-3.95-1.86c-.47-1-.69-2.19-1.07-3.29a37.46,37.46,0,0,0-63.56-12.87,23,23,0,0,1-2,2.26,3.17,3.17,0,0,1-4.36,0,3,3,0,0,1-.73-3.93,14.15,14.15,0,0,1,2.1-2.74C256.3,102.3,270.53,97.93,287.07,100.65Z"/>
    <path class="cls-1"
          d="M302.06,22.75a131.68,131.68,0,0,0-24-2.4,12.85,12.85,0,0,1-2.15-.07A3,3,0,0,1,273,17.07a3.06,3.06,0,0,1,2.78-3.31,25.94,25.94,0,0,1,4.32-.14c27.93.87,53.29,9.23,75.75,26a18.86,18.86,0,0,1,3,2.52,2.92,2.92,0,0,1,.11,4,3.09,3.09,0,0,1-4.23.93,26.25,26.25,0,0,1-2.81-2A124.74,124.74,0,0,0,302.06,22.75Z"/>
    <path class="cls-2"
          d="M292.29,76.79a62.05,62.05,0,0,1,16,5.46,16.67,16.67,0,0,1,3.34,2,3.1,3.1,0,0,1,.63,4.29,3,3,0,0,1-3.76,1.36,30.47,30.47,0,0,1-3.11-1.49c-24.28-11.06-46.83-8.07-67.71,8.37-.91.71-1.7,1.59-2.66,2.21a3.17,3.17,0,0,1-4.32-.55,3,3,0,0,1-.19-4,13.42,13.42,0,0,1,2.73-2.75Q259.24,70.25,292.29,76.79Z"/>
    <path class="cls-2"
          d="M376.86,245.06a5.24,5.24,0,0,1-2.11,3.51,143.53,143.53,0,0,1-57.22,32.32,9,9,0,0,1-1.67.41c-2.11.21-3.82-.73-4.09-2.37a3.3,3.3,0,0,1,2.4-4.05c2.88-.95,5.8-1.78,8.66-2.78A135.84,135.84,0,0,0,367.44,246a9.5,9.5,0,0,0,3-3.6c1.1-2.81,2.46-3.51,4.45-2.87S377.55,241.9,376.86,245.06Z"/>
    <path class="cls-2"
          d="M351.06,201a6.59,6.59,0,0,1-1.72,3,93.19,93.19,0,0,1-41.62,28.4c-.28.09-.55.17-.83.24-2.9.76-4.84.05-5.37-2s.5-3.38,3.19-4.33A101,101,0,0,0,317.46,221a86.26,86.26,0,0,0,25.71-20.15,25.06,25.06,0,0,1,3-3.11,2.79,2.79,0,0,1,3.6-.09A3.08,3.08,0,0,1,351.06,201Z"/>
    <path class="cls-2"
          d="M284.71,50.77c2.31.45,3.76,2,3.4,3.87a3.32,3.32,0,0,1-3.77,2.84,92.74,92.74,0,0,0-11.67-.06,86.26,86.26,0,0,0-31.3,7.93,15.68,15.68,0,0,1-2.77,1.2,3.22,3.22,0,0,1-4-1.71,3,3,0,0,1,1.26-4.12,21.86,21.86,0,0,1,3.07-1.61,93.33,93.33,0,0,1,44.64-8.41Z"/>
    <path class="cls-2"
          d="M424.15,168a151,151,0,0,0,1.75-31.25,18.79,18.79,0,0,1,.05-3.44,2.91,2.91,0,0,1,2.93-2.67,3.21,3.21,0,0,1,3.35,2.24,7.09,7.09,0,0,1,.36,2.12,163.24,163.24,0,0,1-2.7,39.16,12.18,12.18,0,0,1-.39,1.69c-.71,2-2,2.85-3.92,2.46a3.16,3.16,0,0,1-2.76-3.75C423.05,172.58,423.61,170.62,424.15,168Z"/>
    <path class="cls-2"
          d="M237.21,112.15a3.33,3.33,0,0,1-2.33-4.38,7.38,7.38,0,0,1,1.47-2.1A56.71,56.71,0,0,1,265,89a9.44,9.44,0,0,1,1.26-.27c1.94-.2,3.42.43,4,2.44.5,1.76-.35,3.2-2.35,4a13.52,13.52,0,0,1-1.66.44,50.68,50.68,0,0,0-24.67,14.34C239.63,111.94,238.51,112.45,237.21,112.15Z"/>
    <path class="cls-2"
          d="M285.93,113.09a32.27,32.27,0,0,1,19.53,15,13.42,13.42,0,0,1,.93,1.95,3,3,0,0,1-1.21,3.79,3.17,3.17,0,0,1-4.32-.51,11,11,0,0,1-1.42-2.16,25,25,0,0,0-15.15-11.5l-1.26-.33a3.29,3.29,0,0,1-2.61-3.91c.2-1.66,1.94-2.77,3.93-2.65A9.37,9.37,0,0,1,285.93,113.09Z"/>
    <path class="cls-2"
          d="M384.8,235.49c-3-.51-4.33-3.59-2.31-5.57,5.4-5.3,9.17-11.73,13.07-18.09.15-.25.27-.51.44-.74,1.15-1.57,2.62-2.26,4.49-1.37a3.27,3.27,0,0,1,1.28,4.81,130,130,0,0,1-13.38,19.53A3.82,3.82,0,0,1,384.8,235.49Z"/>
    <path class="cls-2"
          d="M321,153.32a44.27,44.27,0,0,1-4.62,12.1A14.76,14.76,0,0,1,314.8,168c-1.35,1.66-3.06,2-4.56,1a3.18,3.18,0,0,1-1.08-4.54c3.67-5.59,5.31-11.79,6.11-18.31a3.22,3.22,0,0,1,3.44-3.17c1.89,0,3.22,1.51,3.14,3.89A64.18,64.18,0,0,1,321,153.32Z"/>
    <path class="cls-1"
          d="M444.47,158.93c-.47,2-2.2,3.4-4,3a3.31,3.31,0,0,1-2.71-3.82c.43-6,.67-12,.54-18a3.34,3.34,0,0,1,3.29-3.73,3.2,3.2,0,0,1,3.37,3.2A140.14,140.14,0,0,1,444.47,158.93Z"/>
    <path class="cls-2"
          d="M384.46,70.89a3.13,3.13,0,0,1-4.95,2.3,10.24,10.24,0,0,1-2.13-2.13q-4.42-5.34-8.81-10.72a14.52,14.52,0,0,1-1.33-1.71c-1.1-1.84-.89-3.52.52-4.67s3.19-.94,4.68.52a42.11,42.11,0,0,1,2.78,3.32q3.87,4.68,7.72,9.37C383.86,68.29,384.85,69.39,384.46,70.89Z"/>
    <path class="cls-2"
          d="M274,112.48c1.49.56,2.61,1.38,2.63,3.08a3.32,3.32,0,0,1-2.57,3.52c-1.92.58-3.89,1-5.77,1.69a22.38,22.38,0,0,0-6.22,3.79,3.54,3.54,0,0,1-5-.58,3.49,3.49,0,0,1,.84-5,31.74,31.74,0,0,1,14.42-6.39C272.9,112.55,273.47,112.53,274,112.48Z"/>
    <path class="cls-2"
          d="M350.46,279.37a3.62,3.62,0,0,1-1.34,2.15c-3.75,3.07-7.84,5.4-12.73,6.05-2.47.32-4.26-.73-4.67-2.66s.72-3.69,3.3-4.14c3.69-.64,6.73-2.5,9.66-4.62a3.77,3.77,0,0,1,4.45-.16A3,3,0,0,1,350.46,279.37Z"/>
    <path class="cls-3"
          d="M220.7,198.83l-.08-32.27-15.83,26.58h-5.61l-15.75-25.89v31.58H171.75V145h10.3l20.13,33.43L222,145h10.22l.15,53.79Z"/>
    <path class="cls-3"
          d="M285.32,157.49l-18.67,43.87c-4,10-9.68,13-17.14,13-4.22,0-8.83-1.38-11.52-3.76l4.38-8.53a10.64,10.64,0,0,0,6.76,2.61c3.3,0,5.15-1.46,6.76-5.15l.15-.38-17.9-41.65h12.37l11.6,28,11.68-28Z"/>
    <path class="cls-3" d="M66.32,211,43,264.76H30.74L7.54,211H21l16.37,38.41L54,211Z"/>
    <path class="cls-3"
          d="M69.24,211c0-3.77,3-6.69,7.46-6.69s7.45,2.77,7.45,6.45c0,4-3,6.92-7.45,6.92S69.24,214.74,69.24,211Zm1.46,12.44h12v41.34h-12Z"/>
    <path class="cls-3" d="M93.83,207.75h12v57h-12Z"/>
    <path class="cls-3" d="M117,207.75h12v57H117Z"/>
    <path class="cls-3"
          d="M176.66,241.17v23.59H165.45v-5.15c-2.23,3.77-6.54,5.77-12.61,5.77-9.68,0-15.44-5.38-15.44-12.53s5.15-12.37,17.75-12.37h9.53c0-5.15-3.08-8.14-9.53-8.14a19.9,19.9,0,0,0-11.91,3.84l-4.3-8.38c4.53-3.22,11.22-5,17.82-5C169.36,222.81,176.66,228.65,176.66,241.17Zm-12,10.53v-4.23h-8.22c-5.61,0-7.38,2.08-7.38,4.84,0,3,2.53,5,6.76,5C159.84,257.31,163.29,255.47,164.68,251.7Z"/>
    <path class="cls-3"
          d="M230.61,223.42v34.43c0,15.36-8.3,22.43-23.21,22.43-7.84,0-15.44-1.92-20.28-5.68l4.76-8.61c3.53,2.85,9.3,4.69,14.6,4.69,8.45,0,12.14-3.84,12.14-11.3v-1.76c-3.15,3.45-7.68,5.14-13.06,5.14-11.45,0-20.67-7.91-20.67-20s9.22-20,20.67-20c5.76,0,10.52,1.92,13.67,5.91v-5.3Zm-11.84,19.37c0-6.07-4.53-10.15-10.83-10.15S197,236.72,197,242.79s4.61,10.14,10.91,10.14S218.77,248.86,218.77,242.79Z"/>
    <path class="cls-3"
          d="M282,247.47H250.74c1.15,5.15,5.53,8.3,11.83,8.3a14,14,0,0,0,10.38-4l6.38,6.91c-3.85,4.38-9.61,6.69-17.06,6.69-14.29,0-23.59-9-23.59-21.29s9.45-21.28,22.05-21.28c12.14,0,21.52,8.14,21.52,21.44C282.25,245.17,282.09,246.47,282,247.47Zm-31.42-7H271a9.82,9.82,0,0,0-10.14-8.6C255.35,231.88,251.43,235.18,250.59,240.48Z"/>
</svg>