<svg id="Layer_1" data-name="Layer 1" xmlns="http://www.w3.org/2000/svg" viewBox="0 0 301.22 301.22"><defs><style>.cls-1{fill:#69c2c4;}.cls-2{fill:#e98a2a;}</style></defs><title>My-Village-Fav-01</title><path class="cls-1" d="M113.87,46.43c-23.91-4.86-43.89-3-63.29,5a17.28,17.28,0,0,1-3.8,1.31,3.13,3.13,0,0,1-3.59-2.07,3,3,0,0,1,1.2-3.93A19.85,19.85,0,0,1,48,44.94c22.84-9.32,46.29-11,70-4.54a109.63,109.63,0,0,1,81.13,109.82c-1.86,46.14-32.11,86.4-75.82,100.26a22,22,0,0,1-4.34,1.08,3,3,0,0,1-3.36-2.38,3,3,0,0,1,1.51-3.82,20.08,20.08,0,0,1,3.35-1.26C151.19,233.88,173.23,214,185.07,184c21.31-54.05-5.95-110.92-54.87-132A89.47,89.47,0,0,0,113.87,46.43Z"/><path class="cls-1" d="M222,174.16c-12.54,50.12-42.68,84.26-92,101a15.82,15.82,0,0,1-2.59.72,3.34,3.34,0,0,1-4.09-2.55c-.51-1.94.45-3.18,2.08-4a26,26,0,0,1,3-1c38.34-12.85,65.73-37.82,80.53-75.4,14.28-36.27,11.69-72.14-6.17-106.84a32,32,0,0,1-2.07-4,3.4,3.4,0,0,1,1.41-4.32c1.47-1,3.37-.43,4.67,1.26a17.8,17.8,0,0,1,1.41,2.29c12.72,23.7,18.29,48.89,16.17,75.78C223.89,162.84,222.79,168.4,222,174.16Z"/><path class="cls-2" d="M114.78,26.58A122,122,0,0,1,212,150.11a100.43,100.43,0,0,1-1.17,13.41c-.53,3.21-1.94,4.61-4.06,4.36s-3.32-2.32-2.81-5.67a101.19,101.19,0,0,0,.14-30.88c-6.82-43.42-30.28-74.2-70.65-91.71-17.5-7.59-36-10-55-8.19a14.27,14.27,0,0,1-3.56.19,3.17,3.17,0,0,1-2.88-3,3.13,3.13,0,0,1,2.2-3.52,19.47,19.47,0,0,1,4-.65A118.21,118.21,0,0,1,114.78,26.58Z"/><path class="cls-2" d="M184.84,164.58a102.85,102.85,0,0,1-10.57,28.77c-.51.91-1,1.86-1.58,2.71-1.43,2.06-3.16,2.58-5,1.57s-2.2-2.85-1-5A122.47,122.47,0,0,0,172.56,181a89.68,89.68,0,0,0-43.45-115.5,65.55,65.55,0,0,0-10.39-4.22,10.62,10.62,0,0,1-2.08-.83,3.28,3.28,0,0,1-1.91-4.08c.51-1.82,2-2.74,4.26-2.23a61.16,61.16,0,0,1,12.56,4.79,96.48,96.48,0,0,1,54.78,93.44C186,157,185.68,161.61,184.84,164.58Z"/><path class="cls-1" d="M164.19,109.07a3.42,3.42,0,0,1-2.37,2.55,3.34,3.34,0,0,1-3.67-1.07,25.44,25.44,0,0,1-1.88-3c-12-20-29.39-32.59-52.22-37-21.46-4.12-41.33.52-59.26,13.11a28.44,28.44,0,0,1-3.33,2.28,3.39,3.39,0,0,1-4.11-5.24,11.41,11.41,0,0,1,2.41-2c18.43-13.3,38.89-18.83,61.47-15.58,26.73,3.84,46.89,17.73,61,40.65C163.18,105.39,164.42,107,164.19,109.07Z"/><path class="cls-2" d="M159.51,160.67c-5.24,22.44-17.84,38.84-38,49.36a17.18,17.18,0,0,1-3.7,1.58,3.24,3.24,0,0,1-4.09-1.91,3.15,3.15,0,0,1,1.4-4.25c1.14-.7,2.41-1.19,3.6-1.82,18-9.52,29.74-24.14,33.88-44,4.58-22-1.23-41.49-16.63-58a30.39,30.39,0,0,1-2.73-3,3.2,3.2,0,0,1,.29-4.15c1.14-1.35,2.59-1.34,4.08-.71a9.81,9.81,0,0,1,3,2.62C157.9,114.69,164,136.23,159.51,160.67Z"/><path class="cls-1" d="M98.6,95.48c-1.94-.25-4-.47-6.09-.82-2.78-.46-3.81-1.53-3.64-3.6s1.37-3.17,4-3.16a47.76,47.76,0,0,1,15.4,2.85A58.61,58.61,0,0,1,145.13,165a56.82,56.82,0,0,1-13.8,22.34,20,20,0,0,1-2,1.82c-1.9,1.44-4,1.4-5.2-.16s-1-3.35.46-4.83c.63-.65,1.28-1.27,1.91-1.91a51.58,51.58,0,0,0-13.36-81.95A55,55,0,0,0,98.6,95.48Z"/><path class="cls-1" d="M165.65,159.76a75.74,75.74,0,0,0-.59-29.62,20.65,20.65,0,0,1-.63-3.07,3.42,3.42,0,0,1,6.57-1.66,15,15,0,0,1,.71,2.59c9.53,40.68-14.21,83.65-53.8,97.41a22.1,22.1,0,0,1-2.13.7c-2,.48-3.62.07-4.55-1.85-.81-1.69.21-3.77,2.25-4.71.94-.43,2-.68,3-1C141.39,209.18,159.89,187.66,165.65,159.76Z"/><path class="cls-2" d="M205.63,185.17c-14.79,39.83-42.11,66.47-83,78.88a10.61,10.61,0,0,1-3.51.56,3.07,3.07,0,0,1-3-2.8,3,3,0,0,1,1.65-3.39A36,36,0,0,1,122,257q47.9-15,71-59.52a144.6,144.6,0,0,0,6.27-14.88,18.37,18.37,0,0,1,.72-2.13,3.24,3.24,0,0,1,4.14-1.76c1.85.6,2.47,2.11,2.27,3.91A13.52,13.52,0,0,1,205.63,185.17Z"/><path class="cls-1" d="M99.24,101.36c16.66,4.44,28.14,14.36,33.87,30.65a15.09,15.09,0,0,1,.89,3.91,3,3,0,0,1-2.35,3.38,3.31,3.31,0,0,1-4.09-1.92c-.49-1.09-.72-2.28-1.11-3.41a38.85,38.85,0,0,0-65.91-13.35A23.27,23.27,0,0,1,58.45,123a3.26,3.26,0,0,1-4.51,0,3.1,3.1,0,0,1-.76-4.08A14.44,14.44,0,0,1,55.36,116C67.34,103.08,82.09,98.54,99.24,101.36Z"/><path class="cls-1" d="M114.79,20.59A135.85,135.85,0,0,0,89.86,18.1,13.75,13.75,0,0,1,87.63,18c-1.85-.32-3-1.36-3-3.33a3.15,3.15,0,0,1,2.88-3.43A26.82,26.82,0,0,1,92,11.12c29,.9,55.26,9.57,78.55,27a19.18,19.18,0,0,1,3.06,2.61,3,3,0,0,1,.11,4.12,3.2,3.2,0,0,1-4.38,1,29.35,29.35,0,0,1-2.91-2.1A129.55,129.55,0,0,0,114.79,20.59Z"/><path class="cls-2" d="M104.65,76.63a64.44,64.44,0,0,1,16.56,5.65,17.88,17.88,0,0,1,3.46,2,3.23,3.23,0,0,1,.65,4.46,3.12,3.12,0,0,1-3.89,1.4,32.79,32.79,0,0,1-3.23-1.54C93,77.17,69.64,80.28,48,97.32c-.94.74-1.76,1.64-2.75,2.29A3.28,3.28,0,0,1,40.76,99a3.14,3.14,0,0,1-.2-4.14,13.89,13.89,0,0,1,2.83-2.85Q70.38,69.83,104.65,76.63Z"/><path class="cls-2" d="M192.34,251.1a5.44,5.44,0,0,1-2.19,3.64,148.74,148.74,0,0,1-59.33,33.51,8.93,8.93,0,0,1-1.73.43c-2.18.21-4-.76-4.25-2.46a3.44,3.44,0,0,1,2.5-4.2c3-1,6-1.84,9-2.88a140.39,140.39,0,0,0,46.26-27.07,9.77,9.77,0,0,0,3.09-3.73c1.14-2.91,2.56-3.63,4.62-3S193.05,247.82,192.34,251.1Z"/><path class="cls-2" d="M165.59,205.46a6.89,6.89,0,0,1-1.78,3A96.65,96.65,0,0,1,120.65,238c-.29.1-.58.18-.86.25-3,.79-5,.06-5.57-2s.52-3.51,3.31-4.49a103.41,103.41,0,0,0,13.22-5.54,89.67,89.67,0,0,0,26.66-20.89,27.71,27.71,0,0,1,3.08-3.23,2.91,2.91,0,0,1,3.74-.09A3.19,3.19,0,0,1,165.59,205.46Z"/><path class="cls-2" d="M96.79,49.64c2.4.46,3.9,2.12,3.53,4a3.45,3.45,0,0,1-3.91,3,96,96,0,0,0-12.11-.06,89.5,89.5,0,0,0-32.44,8.22A16.9,16.9,0,0,1,49,66a3.33,3.33,0,0,1-4.17-1.77A3.14,3.14,0,0,1,46.12,60a22.89,22.89,0,0,1,3.18-1.67,96.76,96.76,0,0,1,46.28-8.72Z"/><path class="cls-2" d="M241.38,171.21a156.31,156.31,0,0,0,1.81-32.4,19.35,19.35,0,0,1,.05-3.57,3,3,0,0,1,3-2.76,3.33,3.33,0,0,1,3.47,2.32,7.06,7.06,0,0,1,.38,2.2,169,169,0,0,1-2.8,40.6,12.7,12.7,0,0,1-.4,1.75c-.74,2.1-2.12,3-4.07,2.56A3.27,3.27,0,0,1,240,178C240.23,176,240.81,173.92,241.38,171.21Z"/><path class="cls-2" d="M47.53,113.29a3.45,3.45,0,0,1-2.4-4.55,7.17,7.17,0,0,1,1.52-2.17A58.8,58.8,0,0,1,76.36,89.26,10.21,10.21,0,0,1,77.67,89c2-.2,3.54.45,4.13,2.54.51,1.82-.37,3.31-2.44,4.13a14.53,14.53,0,0,1-1.72.46A52.53,52.53,0,0,0,52.06,111C50.05,113.07,48.88,113.6,47.53,113.29Z"/><path class="cls-2" d="M98.05,114.26a33.46,33.46,0,0,1,20.25,15.55,13.51,13.51,0,0,1,1,2,3.06,3.06,0,0,1-1.26,3.92,3.26,3.26,0,0,1-4.47-.52,11.19,11.19,0,0,1-1.47-2.25,26,26,0,0,0-15.72-11.92l-1.3-.34a3.41,3.41,0,0,1-2.7-4c.2-1.72,2-2.87,4.06-2.75A9.68,9.68,0,0,1,98.05,114.26Z"/><path class="cls-2" d="M200.57,241.18c-3.15-.53-4.49-3.72-2.4-5.77,5.61-5.5,9.51-12.17,13.56-18.77.15-.25.28-.53.45-.76,1.2-1.63,2.72-2.34,4.66-1.43s2.49,2.92,1.33,5A134.87,134.87,0,0,1,204.3,239.7,4,4,0,0,1,200.57,241.18Z"/><path class="cls-2" d="M134.46,156a46.19,46.19,0,0,1-4.79,12.56,15.6,15.6,0,0,1-1.68,2.65c-1.4,1.72-3.17,2.08-4.73,1.07a3.29,3.29,0,0,1-1.12-4.7c3.8-5.79,5.51-12.22,6.34-19a3.33,3.33,0,0,1,3.56-3.28c2,0,3.35,1.56,3.27,4C135.23,151.53,134.76,153.75,134.46,156Z"/><path class="cls-1" d="M262.45,161.8c-.49,2.06-2.28,3.51-4.13,3.09a3.42,3.42,0,0,1-2.8-4c.45-6.23.7-12.46.56-18.71a3.46,3.46,0,0,1,3.41-3.87,3.32,3.32,0,0,1,3.49,3.32A144.3,144.3,0,0,1,262.45,161.8Z"/><path class="cls-2" d="M200.22,70.51a3.24,3.24,0,0,1-5.14,2.37,10.92,10.92,0,0,1-2.2-2.2c-3.06-3.69-6.1-7.41-9.13-11.11a14.62,14.62,0,0,1-1.38-1.78c-1.14-1.91-.93-3.64.53-4.84s3.32-1,4.86.54a41.76,41.76,0,0,1,2.88,3.45c2.67,3.23,5.35,6.46,8,9.71C199.6,67.81,200.63,69,200.22,70.51Z"/><path class="cls-2" d="M85.69,113.63c1.54.58,2.7,1.43,2.73,3.19a3.45,3.45,0,0,1-2.67,3.65c-2,.6-4,1-6,1.76a22.62,22.62,0,0,0-6.45,3.92,3.67,3.67,0,0,1-5.19-.6,3.61,3.61,0,0,1,.87-5.14,32.89,32.89,0,0,1,15-6.62C84.54,113.7,85.14,113.68,85.69,113.63Z"/><path class="cls-2" d="M165,286.68a3.71,3.71,0,0,1-1.39,2.23c-3.88,3.18-8.13,5.59-13.19,6.27-2.56.33-4.42-.76-4.84-2.76s.74-3.82,3.41-4.29c3.83-.67,7-2.6,10-4.8a3.93,3.93,0,0,1,4.61-.16A3.07,3.07,0,0,1,165,286.68Z"/></svg>